<?xml version="1.0" encoding="UTF-8"?>
<!DOCTYPE svg PUBLIC "-//W3C//DTD SVG 1.1//EN" "http://www.w3.org/Graphics/SVG/1.1/DTD/svg11.dtd">
<!-- Creator: CorelDRAW X7 -->
<svg xmlns="http://www.w3.org/2000/svg" xml:space="preserve" width="134.055mm" height="31.0444mm" version="1.1" style="shape-rendering:geometricPrecision; text-rendering:geometricPrecision; image-rendering:optimizeQuality; fill-rule:evenodd; clip-rule:evenodd"
viewBox="0 0 13406 3104"
 xmlns:xlink="http://www.w3.org/1999/xlink">
 <defs>
  <style type="text/css">
   <![CDATA[
    .str0 {stroke:black;stroke-width:20}
    .fil107 {fill:none}
    .fil7 {fill:#009CFE}
    .fil12 {fill:#0490F9}
    .fil8 {fill:#058CF7}
    .fil21 {fill:#078CF7}
    .fil34 {fill:#088DF7}
    .fil41 {fill:#0A8EF6}
    .fil20 {fill:#0C8FF8}
    .fil35 {fill:#0E91F8}
    .fil42 {fill:#1091F9}
    .fil16 {fill:#1092F9}
    .fil11 {fill:#11B2EE}
    .fil18 {fill:#1394FA}
    .fil33 {fill:#1497FB}
    .fil13 {fill:#1595FA}
    .fil9 {fill:#1596FA}
    .fil24 {fill:#1598FC}
    .fil5 {fill:#1661E0}
    .fil48 {fill:#1699FC}
    .fil102 {fill:#1762E1}
    .fil32 {fill:#1798FA}
    .fil99 {fill:#1B66E3}
    .fil50 {fill:#216AE5}
    .fil30 {fill:#226BE5}
    .fil105 {fill:#246CE5}
    .fil23 {fill:#246DE6}
    .fil19 {fill:#266EE5}
    .fil6 {fill:#2750AD}
    .fil97 {fill:#276FE7}
    .fil36 {fill:#2970E6}
    .fil54 {fill:#2A71E6}
    .fil28 {fill:#2E74E8}
    .fil37 {fill:#2F75E9}
    .fil26 {fill:#3094FE}
    .fil25 {fill:#3278EA}
    .fil3 {fill:#32A7DF}
    .fil1 {fill:#333333}
    .fil4 {fill:#33CC99}
    .fil27 {fill:#347AEB}
    .fil101 {fill:#367BEC}
    .fil31 {fill:#377CEC}
    .fil51 {fill:#3A7FED}
    .fil89 {fill:#3E81EE}
    .fil80 {fill:#4083EF}
    .fil85 {fill:#4184EF}
    .fil93 {fill:#4386F0}
    .fil39 {fill:#4487F0}
    .fil83 {fill:#4688F1}
    .fil90 {fill:#468B72}
    .fil67 {fill:#4697BF}
    .fil55 {fill:#4799BE}
    .fil56 {fill:#489DBD}
    .fil76 {fill:#498E76}
    .fil106 {fill:#4A9076}
    .fil88 {fill:#4B8CF3}
    .fil38 {fill:#4C948B}
    .fil66 {fill:#4D937B}
    .fil92 {fill:#508FF6}
    .fil81 {fill:#5594F6}
    .fil47 {fill:#56A087}
    .fil103 {fill:#59A48B}
    .fil82 {fill:#59A58C}
    .fil43 {fill:#5AA797}
    .fil87 {fill:#5DACA3}
    .fil53 {fill:#60AE95}
    .fil91 {fill:#60AFA6}
    .fil98 {fill:#61B1A7}
    .fil57 {fill:#62B097}
    .fil68 {fill:#65B49B}
    .fil69 {fill:#67B89E}
    .fil78 {fill:#68B99F}
    .fil96 {fill:#6ABBA1}
    .fil94 {fill:#838BFC}
    .fil14 {fill:#847BF9}
    .fil10 {fill:#927EFC}
    .fil17 {fill:#A081FF}
    .fil61 {fill:#C06349}
    .fil75 {fill:#C46B47}
    .fil72 {fill:#CA7743}
    .fil95 {fill:#CD8141}
    .fil100 {fill:#CF823E}
    .fil40 {fill:#D36337}
    .fil58 {fill:#D3893D}
    .fil104 {fill:#D46438}
    .fil79 {fill:#D56637}
    .fil62 {fill:#D66C34}
    .fil84 {fill:#D99539}
    .fil64 {fill:#DA7433}
    .fil45 {fill:#DD9F35}
    .fil52 {fill:#DE7A30}
    .fil59 {fill:#DF7C30}
    .fil29 {fill:#E17F2F}
    .fil49 {fill:#E1802F}
    .fil46 {fill:#E3832E}
    .fil44 {fill:#E4852D}
    .fil22 {fill:#E5882C}
    .fil70 {fill:#E68A2C}
    .fil74 {fill:#E78C2B}
    .fil65 {fill:#E88E2B}
    .fil86 {fill:#EA9129}
    .fil60 {fill:#EB9429}
    .fil63 {fill:#EE9A27}
    .fil71 {fill:#EF9C26}
    .fil77 {fill:#F2A224}
    .fil73 {fill:#F3A623}
    .fil2 {fill:#FFCC00}
    .fil15 {fill:white}
    .fil0 {fill:#333333;fill-rule:nonzero}
   ]]>
  </style>
 </defs>
 <g id="Camada_x0020_1">
  <metadata id="CorelCorpID_0Corel-Layer"/>
  <g id="_2948205447648">
   <g>
    <path class="fil0" d="M27 1070l0 675 119 0 0 -675 -119 0zm846 191l0 484 117 0 0 -675 -126 0 -205 319 -206 -319 -127 0 0 675 119 0 0 -483 211 317 4 0 213 -318zm815 36c0,-35 -7,-66 -19,-95 -11,-27 -29,-51 -51,-71 -23,-20 -49,-35 -81,-46 -31,-10 -67,-15 -106,-15l-267 0 0 675 118 0 0 -218 134 0c37,0 72,-5 106,-15 32,-10 61,-24 86,-43 25,-19 43,-44 58,-73 14,-28 22,-62 22,-99zm-121 1c0,37 -14,67 -40,90 -26,22 -61,32 -107,32l-138 0 0 -243 138 0c45,0 81,10 107,30 26,20 40,51 40,91zm523 -233l-110 0 -296 680 121 0 69 -163 319 0 69 163 126 0 -298 -680zm60 411l-232 0 116 -269 116 269zm899 161l-76 -78c-29,28 -59,49 -87,65 -30,15 -65,24 -106,24 -32,0 -62,-8 -90,-20 -27,-13 -51,-29 -71,-51 -20,-23 -35,-47 -46,-77 -11,-29 -16,-60 -16,-94 0,-33 5,-65 16,-93 11,-30 26,-55 46,-76 20,-21 44,-39 71,-51 28,-13 58,-19 90,-19 37,0 72,8 102,23 31,16 60,36 86,61l77 -88c-16,-16 -33,-30 -52,-42 -18,-14 -37,-25 -59,-34 -21,-10 -45,-16 -69,-22 -25,-5 -54,-7 -85,-7 -51,0 -99,9 -141,27 -42,19 -78,43 -109,76 -32,31 -55,68 -73,111 -17,42 -25,88 -25,135 0,50 9,95 27,137 17,43 41,80 71,111 31,31 67,56 108,74 42,19 88,27 137,27 32,0 61,-2 87,-8 26,-5 50,-13 71,-24 23,-10 42,-23 62,-38 19,-14 36,-31 54,-49zm411 -457l214 0 0 -110 -548 0 0 110 214 0 0 565 120 0 0 -565zm979 226c0,-47 -9,-93 -26,-136 -18,-42 -41,-78 -72,-110 -32,-32 -69,-56 -111,-75 -44,-18 -91,-27 -144,-27 -52,0 -99,9 -143,28 -42,19 -79,44 -111,75 -32,32 -56,70 -73,112 -18,42 -26,87 -26,134 0,49 8,94 26,136 17,43 41,80 72,111 31,31 67,56 111,75 44,19 91,27 143,27 51,0 100,-8 142,-27 44,-19 81,-45 112,-76 31,-33 56,-70 74,-112 17,-43 26,-87 26,-135zm-125 1c0,34 -6,65 -17,94 -11,30 -26,55 -46,76 -20,22 -44,38 -72,51 -28,12 -59,20 -93,20 -33,0 -64,-8 -92,-20 -28,-13 -52,-30 -73,-52 -20,-22 -36,-48 -48,-76 -11,-30 -16,-61 -16,-94 0,-32 5,-63 16,-93 12,-29 28,-55 48,-76 20,-21 43,-39 72,-51 27,-13 59,-19 92,-19 33,0 64,6 92,19 29,13 53,31 73,52 21,23 36,47 47,77 11,29 17,60 17,92zm363 -161c0,-23 10,-42 28,-58 20,-15 48,-23 81,-23 32,0 63,6 93,18 30,11 61,29 92,51l63 -89c-35,-28 -72,-49 -112,-64 -38,-14 -83,-21 -133,-21 -34,0 -65,5 -92,14 -29,8 -53,22 -72,40 -22,17 -37,38 -49,62 -11,23 -16,51 -16,81 0,31 5,58 15,79 10,23 23,42 43,57 19,14 43,28 70,38 29,10 61,20 97,28 31,8 56,16 76,22 20,7 36,15 48,22 11,9 18,18 22,28 5,10 6,20 6,32 0,26 -10,48 -32,62 -21,17 -50,24 -87,24 -43,0 -80,-7 -114,-22 -33,-15 -67,-38 -99,-65l-71 85c39,36 84,63 132,81 47,17 97,26 149,26 35,0 67,-4 97,-13 30,-10 55,-22 76,-40 21,-17 38,-38 50,-63 11,-25 17,-54 17,-86 0,-29 -5,-54 -13,-74 -10,-21 -24,-39 -41,-56 -19,-15 -41,-28 -69,-39 -27,-12 -58,-22 -94,-30 -33,-8 -59,-15 -80,-23 -21,-6 -38,-13 -50,-22 -11,-9 -20,-18 -24,-28 -5,-10 -7,-21 -7,-34z"/>
    <path class="fil0" d="M1360 2112c0,-18 -4,-36 -10,-52 -7,-15 -16,-29 -29,-40 -12,-10 -27,-18 -46,-25 -17,-6 -37,-8 -58,-8l-148 0 0 376 64 0 0 -121 75 0c21,0 41,-3 60,-9 17,-5 33,-13 47,-23 14,-12 25,-25 33,-41 7,-17 12,-35 12,-57zm-67 2c0,21 -8,37 -23,50 -15,12 -35,18 -59,18l-78 0 0 -136 78 0c24,0 44,5 59,17 15,11 23,28 23,51zm510 59c0,-26 -3,-51 -13,-74 -10,-24 -24,-44 -41,-63 -17,-17 -38,-31 -61,-41 -24,-10 -52,-15 -80,-15 -29,0 -56,5 -80,15 -24,12 -45,25 -62,43 -18,17 -31,38 -41,62 -10,24 -14,49 -14,75 0,27 4,52 14,76 10,23 23,43 41,61 16,17 37,32 61,42 24,10 51,15 80,15 28,0 56,-5 79,-15 24,-11 45,-25 63,-42 17,-19 31,-39 41,-63 10,-23 13,-48 13,-76zm-68 2c0,18 -4,36 -10,52 -6,16 -15,30 -26,42 -11,13 -24,22 -40,29 -15,8 -32,10 -51,10 -19,0 -36,-4 -51,-10 -16,-7 -30,-17 -41,-30 -12,-11 -20,-26 -26,-42 -7,-16 -10,-34 -10,-53 0,-17 3,-34 10,-51 6,-16 14,-31 26,-42 11,-12 23,-22 40,-29 14,-7 32,-11 51,-11 18,0 36,4 52,11 15,8 29,18 40,29 11,13 20,27 26,44 6,16 10,33 10,51zm202 -90c0,-12 5,-24 16,-32 11,-9 26,-13 45,-13 17,0 35,3 51,10 17,6 33,16 51,29l36 -50c-20,-16 -40,-27 -62,-36 -23,-8 -48,-11 -75,-11 -19,0 -36,2 -51,7 -16,5 -30,13 -41,23 -11,8 -20,21 -26,34 -7,13 -10,28 -10,45 0,18 3,33 8,44 7,12 14,24 25,31 10,9 24,16 39,22 16,5 34,10 53,15 18,5 33,9 44,13 10,4 19,9 25,12 6,5 11,10 14,15 2,5 3,11 3,19 0,15 -6,26 -18,35 -13,9 -29,12 -49,12 -24,0 -45,-3 -63,-12 -19,-9 -38,-20 -55,-36l-40 47c22,20 47,35 73,45 27,10 54,15 84,15 20,0 37,-3 53,-8 18,-5 32,-12 43,-21 12,-10 21,-22 27,-36 8,-14 10,-30 10,-47 0,-17 -2,-30 -7,-41 -5,-13 -13,-23 -23,-32 -10,-8 -23,-16 -38,-22 -15,-6 -33,-11 -53,-16 -18,-5 -32,-9 -44,-13 -12,-3 -22,-8 -28,-13 -6,-4 -11,-9 -14,-15 -2,-5 -3,-11 -3,-19zm292 -98l0 376 65 0 0 -376 -65 0zm325 61l120 0 0 -61 -305 0 0 61 119 0 0 315 66 0 0 -315zm194 -61l0 376 66 0 0 -376 -66 0zm321 289l-113 -289 -74 0 157 378 57 0 157 -378 -71 0 -113 289zm603 -103c0,-26 -5,-51 -15,-74 -10,-24 -23,-44 -40,-63 -18,-17 -39,-31 -62,-41 -24,-10 -51,-15 -80,-15 -29,0 -55,5 -80,15 -23,12 -45,25 -62,43 -18,17 -31,38 -41,62 -9,24 -14,49 -14,75 0,27 5,52 14,76 10,23 23,43 41,61 17,17 37,32 61,42 25,10 51,15 80,15 30,0 56,-5 79,-15 24,-11 45,-25 63,-42 17,-19 31,-39 41,-63 10,-23 15,-48 15,-76zm-70 2c0,18 -3,36 -10,52 -6,16 -15,30 -25,42 -11,13 -25,22 -41,29 -15,8 -32,10 -51,10 -19,0 -36,-4 -51,-10 -16,-7 -30,-17 -41,-30 -11,-11 -20,-26 -26,-42 -7,-16 -10,-34 -10,-53 0,-17 3,-34 10,-51 6,-16 15,-31 26,-42 11,-12 25,-22 40,-29 16,-7 32,-11 51,-11 18,0 36,4 52,11 15,8 29,18 40,29 11,13 20,27 26,44 7,16 10,33 10,51zm202 -90c0,-12 6,-24 16,-32 11,-9 26,-13 46,-13 16,0 34,3 51,10 16,6 34,16 51,29l35 -50c-20,-16 -40,-27 -62,-36 -23,-8 -46,-11 -75,-11 -19,0 -35,2 -51,7 -16,5 -29,13 -40,23 -11,8 -20,21 -27,34 -7,13 -9,28 -9,45 0,18 2,33 7,44 7,12 14,24 25,31 10,9 24,16 39,22 16,5 34,10 55,15 17,5 31,9 42,13 11,4 20,9 26,12 6,5 10,10 13,15 2,5 3,11 3,19 0,15 -6,26 -18,35 -11,9 -28,12 -49,12 -23,0 -45,-3 -63,-12 -19,-9 -36,-20 -55,-36l-40 47c22,20 47,35 73,45 27,10 55,15 84,15 20,0 37,-3 55,-8 16,-5 30,-12 41,-21 12,-10 21,-22 29,-36 6,-14 8,-30 8,-47 0,-17 -2,-30 -7,-41 -5,-13 -13,-23 -23,-32 -10,-8 -22,-16 -38,-22 -15,-6 -33,-11 -53,-16 -17,-5 -32,-9 -44,-13 -12,-3 -20,-8 -28,-13 -6,-4 -11,-9 -14,-15 -2,-5 -3,-11 -3,-19z"/>
    <path class="fil1" d="M6267 2613c-813,456 -1889,207 -2935,1 -1045,-205 -2207,-88 -3098,-92 883,97 1972,18 3017,237 1045,220 2355,516 3016,-146z"/>
    <path class="fil2" d="M5863 228c439,278 495,664 565,1122 72,485 -273,-72 -570,10 -55,15 -134,62 -186,71 -157,25 -421,-70 -481,-230 -58,-158 63,-350 126,-461 117,-201 88,-245 106,-498 17,-243 306,-99 440,-14l0 0z"/>
    <path class="fil3" d="M5538 1672c31,33 150,47 236,112 172,125 -45,322 -149,406 -68,53 -150,89 -180,123 -59,67 -387,167 -469,125 -30,-83 121,-128 175,-171 78,-62 135,-128 46,-232 -159,-185 -36,-353 207,-373 36,-5 131,7 134,10z"/>
    <path class="fil4" d="M6032 2460c46,-259 243,-467 431,-559 24,-14 91,-39 122,-53 98,-39 176,27 113,162 -53,121 -244,299 -351,367 -144,84 -193,93 -315,83z"/>
    <path class="fil1" d="M6061 2460c123,-70 362,-370 433,-561 16,-42 51,-118 59,-169 -212,72 -575,600 -639,818 47,-13 117,-71 147,-88zm73 -774c29,-31 1,-47 -91,-63 -43,-8 -85,-12 -131,-11 49,36 166,138 222,74zm466 116c-56,157 -71,165 -88,205 -48,102 -156,267 -231,341 -95,93 -318,295 -448,280 -9,-156 380,-770 687,-948 41,-23 49,-17 60,-63 14,-60 19,-168 20,-233 5,-324 -49,-593 -179,-833 -94,-174 -409,-517 -558,-313 -34,45 -79,224 -119,308 -97,200 -150,184 -236,255 -180,148 15,441 134,572 267,287 336,115 510,230 46,30 54,90 7,130 -57,47 -116,17 -163,-8 -209,-105 -126,-134 -280,-97 -50,11 -107,26 -150,44 -117,34 -299,115 -249,261 47,141 182,206 137,404 -25,108 -50,130 -121,205 -37,41 -204,127 -173,163 71,87 349,-259 409,-319 54,-54 350,-353 441,-274 -13,68 -88,30 -243,157 -185,152 -538,668 -655,462 -65,-112 198,-155 277,-378 53,-145 -64,-269 -113,-379 -88,-202 47,-259 157,-312 41,-20 106,-38 153,-54 44,-14 130,-29 164,-45 -27,-42 -140,-124 -249,-285 -102,-152 -188,-387 -38,-509 50,-42 91,-53 141,-106 102,-109 156,-362 226,-489 33,-57 65,-120 197,-71 340,132 553,548 609,925 34,229 10,370 0,591 4,55 8,63 5,65 -17,22 -20,59 -41,118z"/>
    <path class="fil1" d="M5886 1350c61,-15 11,-136 81,-163 287,-115 399,443 464,548 -25,-133 -18,-342 -182,-514 -160,-168 -350,-155 -399,18 -14,46 -25,125 36,111z"/>
    <path class="fil1" d="M6549 1719c166,-40 327,-85 395,-244 91,-214 -136,-332 -211,-234 38,54 41,13 100,24 78,15 127,145 9,268 -60,61 -150,101 -230,119 -53,16 -86,26 -88,23l25 44z"/>
    <path class="fil1" d="M7082 1482c29,-10 67,3 66,49 -9,208 -372,149 -407,209 35,81 402,-17 449,-157 31,-90 -64,-184 -145,-143 -60,30 -61,81 -41,111 18,31 28,18 41,-9 12,-27 -28,-37 37,-60z"/>
   </g>
   <g>
    <path class="fil5" d="M12863 1447c0,15 7,54 7,73 1,22 7,56 8,73l-96 0c7,-11 17,-32 25,-45 2,-4 3,-6 5,-9l51 -92zm-427 80l19 -86c24,0 65,-3 84,8 18,11 11,42 2,56 -19,29 -60,22 -105,22zm-144 203l101 0c0,-10 21,-100 25,-120 2,-7 4,-11 4,-19 15,0 53,-1 66,4 10,3 15,11 15,21 0,36 -7,67 -7,114l209 0 34 -62c2,-4 3,-8 7,-8l137 0c6,0 7,22 8,34 2,12 4,25 5,36l113 0c0,-7 -2,-15 -3,-22l-29 -154c-2,-10 -32,-168 -32,-177l-125 0c-1,5 -21,37 -26,44 -4,8 -8,15 -13,22l-174 281c-2,3 -1,1 -2,3 0,-19 -2,-40 0,-58 2,-7 2,-21 2,-28 1,-4 0,-9 0,-14 1,-18 5,-41 -13,-58 -10,-10 -27,-13 -47,-13l0 -3c23,0 59,-15 76,-32 27,-28 41,-80 21,-114 -19,-33 -64,-31 -101,-31 -58,0 -117,0 -176,0l-75 354z"/>
    <path class="fil5" d="M9415 1100l27 2c2,-5 1,-3 3,-6 0,-5 2,-15 6,-19 0,-5 1,-11 4,-14l3 -13c1,-6 0,-4 4,-7l21 1 -4 14 -5 20 -4 12 -4 14 38 2c0,9 -46,162 -53,185 13,-6 27,-15 42,-21 105,-45 250,-31 303,83 31,68 9,142 -23,195 -28,46 -84,97 -130,116l15 46c2,0 -1,1 4,-1 43,-18 79,-47 111,-79 55,-55 94,-152 95,-237 0,-19 -5,-42 -9,-57 -6,-18 -13,-30 -22,-44 -27,-39 -77,-63 -123,-76 -48,-12 -100,-13 -149,-5 -9,2 -20,5 -29,6 5,-22 12,-44 17,-66l349 0 13 -57c1,-5 4,-13 4,-20l-21 -1 -128 -1 -123 -2 -25 0 -18 0 15 -56 -186 0c-3,6 -12,51 -14,63 -1,7 -4,17 -4,23z"/>
    <path class="fil6" d="M9112 1312l-28 0 -11 0 -20 0 -13 0 -27 0 -54 0 -4 16 -12 55 42 1 58 0 22 0 9 0 28 0 45 0c-15,67 -28,136 -44,203l76 0 42 -197c2,-7 1,-6 9,-6l193 0c6,-1 3,2 4,-3 3,-15 7,-33 11,-48 2,-11 6,-11 13,-16 6,-4 13,-9 19,-12 8,-7 41,-20 54,-24 184,-56 324,82 235,247 -32,60 -97,118 -181,138 -47,11 -94,12 -138,-5 -19,-8 -39,-20 -51,-30 -9,-9 -30,-31 -34,-45l-3 -3 -20 11c0,5 0,5 3,10 3,4 4,5 4,9 2,1 18,21 19,22 5,5 10,11 16,16 5,4 13,9 18,13 4,2 17,9 20,11 4,2 35,13 35,13l29 6c17,2 32,2 50,2l6 -1 31 -4 30 -6 18 -7 32 -14c46,-19 102,-70 130,-116 32,-53 54,-127 23,-195 -53,-114 -198,-128 -303,-83 -15,6 -29,15 -42,21 -4,5 -12,8 -17,12 -8,6 -9,9 -22,9 -20,0 -40,0 -60,0l-113 -1 32 -151c2,-9 4,-18 6,-26 1,-7 4,-21 6,-26l-60 0c-21,0 -15,-4 -20,20l-11 51c-11,44 -19,88 -29,132l-51 1z"/>
    <path class="fil5" d="M8703 1735l-8 -73 0 0 -4 -1c-4,3 -13,2 -19,2l-19 0 -19 -2c-11,-1 -38,-6 -46,-11 -16,-5 -32,-15 -44,-24 -26,-19 -45,-46 -57,-77 -8,-20 -8,-33 -12,-55 1,-17 -3,-36 0,-54l5 -24c-1,-5 1,-11 3,-16l75 0 0 0c1,-13 10,-40 14,-52 16,-45 44,-90 81,-121 -3,-4 -7,-7 -11,-11 -1,-2 -3,-3 -4,-5 -4,-4 -2,-3 -7,-4 -12,5 -27,25 -37,32l-104 -69 -2 0 -29 34c-10,13 -18,24 -27,38 -4,7 -8,13 -12,20 -7,14 -15,28 -21,43 -40,101 -55,219 2,315 5,7 9,13 13,20 35,50 103,83 166,93 32,5 59,4 93,4 10,0 21,-3 30,-2z"/>
    <path class="fil5" d="M12106 1664l-42 0c0,-7 3,-13 4,-20 2,-8 3,-15 5,-21 3,-15 5,-29 8,-43 21,0 42,0 61,1 27,3 37,10 37,33 0,18 -11,33 -22,40 -13,9 -30,10 -51,10zm47 -148l-57 0c0,-11 15,-67 15,-78 20,0 40,0 59,0 49,2 34,51 19,65 -8,9 -20,13 -36,13zm-202 214c49,0 98,0 146,0 50,0 95,-2 126,-21 35,-22 53,-49 57,-89 4,-33 -13,-56 -40,-67 -14,-5 -13,-4 -24,-7l-2 -1c-1,0 -1,0 -1,0 -1,0 -1,-1 -1,-1 10,-1 27,-8 36,-12 53,-22 88,-102 27,-143 -22,-14 -46,-15 -72,-15 -59,0 -117,0 -176,0l-28 133c-4,16 -6,30 -10,45 -6,30 -13,60 -19,88l-19 90z"/>
    <path class="fil5" d="M11916 1924l644 0c7,0 8,-17 10,-28l13 -65c3,-13 9,-29 2,-29l-645 0c-7,0 -8,17 -10,28l-16 81c-1,5 -5,13 2,13z"/>
    <path class="fil5" d="M12081 1117l654 0 22 -110c1,-5 5,-13 -2,-13l-645 0c-6,0 -7,17 -9,28l-20 95z"/>
    <path class="fil5" d="M11876 2112l644 0c7,0 8,-18 10,-29l16 -81c1,-4 5,-13 -1,-13l-645 0c-5,0 -5,6 -6,12l-10 49c-3,11 -5,21 -7,32 -2,13 -9,30 -1,30z"/>
    <path class="fil5" d="M12695 1304l19 -94c2,-14 8,-29 1,-29l-645 0c-6,0 -6,12 -7,17 -2,7 -3,14 -5,22l-16 82c2,4 17,2 22,2l631 0z"/>
    <path class="fil5" d="M11524 1616c0,14 -1,22 -11,33 -20,23 -99,28 -99,-18 0,-10 1,-11 1,-18l-95 0c-6,0 -5,8 -6,13 -4,39 3,64 37,85 28,17 67,19 104,19 61,0 129,-23 157,-71 19,-32 32,-89 -8,-115 -27,-17 -74,-25 -105,-34 -20,-6 -44,-8 -44,-31 0,-25 26,-42 51,-42 52,0 40,26 40,47l95 0c8,0 9,-26 9,-33 0,-65 -72,-77 -126,-77 -83,0 -164,36 -175,121 -8,69 73,81 127,94 16,4 48,10 48,27z"/>
    <path class="fil5" d="M11640 1730l274 0 11 -52c2,-6 4,-11 4,-18l-175 0c6,-24 10,-50 16,-74l161 0c1,-6 2,-11 4,-17l11 -52 -160 0c0,-7 1,-11 3,-18 1,-5 2,-12 4,-18 1,-8 7,-30 7,-37l169 0c5,0 8,-22 10,-33 2,-9 7,-26 7,-35l-270 0c-7,29 -13,58 -19,88 -4,16 -57,258 -57,266z"/>
    <path class="fil5" d="M13030 1730l275 0c3,-11 14,-62 14,-70l-174 0c2,-4 6,-29 8,-36 1,-8 2,-12 4,-19 1,-6 3,-14 4,-19l161 0c1,-16 14,-56 14,-69l-160 0 14 -66c2,-7 1,-7 9,-7l163 0c4,-9 12,-60 16,-68l0 0 -272 0 -76 354z"/>
    <path class="fil5" d="M7877 1100c6,2 35,4 41,1l9 -30 22 1c1,6 -5,23 -7,30 2,5 19,4 24,4 2,12 -48,161 -54,190 15,-8 27,-16 46,-24 15,-7 34,-13 52,-16 48,-10 77,-8 124,0 4,-3 22,-37 23,-43l-38 -6c-26,-3 -74,1 -101,7 -7,1 -13,3 -20,3 4,-8 13,-56 17,-64 111,0 225,-1 335,0 18,0 14,5 24,-43l18 -82c5,-17 6,-14 -14,-14l-1 1 -12 59 -25 0 -81 -1 -44 -1 -31 0 -58 0 -36 -1 -76 -1 16 -56 -135 0 -9 42c-2,8 -10,37 -9,44z"/>
    <path class="fil7" d="M10528 1584l-1 0c-5,7 -22,22 -30,29 -12,10 -21,17 -33,26 -21,16 -46,29 -74,43 -11,5 -20,9 -32,13 -9,3 -26,7 -33,11 -25,4 -46,10 -72,12 -24,3 -55,4 -79,1 -50,-4 -98,-20 -134,-43 -32,-20 -65,-54 -83,-94 -7,-11 -16,-41 -19,-55 -5,-23 -7,-47 -7,-71 1,-23 3,-41 6,-62 4,-22 8,-40 15,-60 2,-9 15,-47 20,-53 3,-8 10,-26 16,-31 2,-12 34,-56 44,-69 3,-4 7,-8 10,-11 7,-8 15,-18 22,-23 5,-9 36,-33 48,-42 10,-9 46,-33 63,-40 8,-6 45,-21 58,-25 20,-6 44,-12 67,-17 24,-2 47,-7 73,-5l0 0 0 -1c3,-11 5,-22 8,-33 -76,0 -142,14 -209,48 -39,19 -83,50 -113,80 -9,9 -3,1 -16,16l-23 25c-3,4 -4,6 -7,9 -15,18 -28,38 -40,58 -4,7 -6,13 -11,20 -2,4 -3,6 -5,10 -9,19 -18,38 -24,58 -22,67 -37,138 -23,223 3,18 8,37 14,51 30,76 81,134 161,161 70,23 153,25 225,5 73,-20 131,-51 191,-98 11,-9 42,-36 50,-49 -4,-5 -17,-12 -23,-17z"/>
    <path class="fil5" d="M9470 1305c3,7 13,19 18,25 6,8 14,17 18,24 50,-23 117,-22 165,8 41,24 45,67 35,109 -5,21 -8,21 -14,38 5,3 37,12 46,14 -4,18 -46,66 -63,79 -33,24 -48,36 -93,48 -40,11 -84,13 -123,-2 -18,-7 -32,-15 -44,-25 -9,-7 -28,-28 -32,-40l39 -17 0 -2 -5 -4 -62 26c4,14 25,36 34,45 12,10 32,22 51,30 44,17 91,16 138,5 84,-20 149,-78 181,-138 89,-165 -51,-303 -235,-247 -13,4 -46,17 -54,24z"/>
    <path class="fil5" d="M7905 1319l-1 2 -16 54c6,4 21,9 27,12 6,-4 11,-8 18,-13 54,-36 100,-44 166,-28 15,4 30,12 41,20 39,27 40,79 24,121 -1,5 -3,7 -4,11l70 21c7,-10 18,-48 20,-63 4,-26 2,-53 -5,-77 -39,-119 -182,-135 -285,-91 -34,15 -40,23 -55,31z"/>
    <path class="fil6" d="M7830 1940c0,32 27,47 51,56 14,5 27,8 42,12 17,4 32,9 32,25 0,50 -97,63 -97,13 0,-6 1,-15 3,-19l-60 0c0,19 -14,52 21,77 18,13 44,15 69,15 45,0 90,-21 113,-55 16,-25 24,-64 -5,-86 -10,-7 -23,-12 -36,-16 -21,-7 -71,-13 -71,-33 0,-16 3,-25 17,-35 15,-12 44,-15 59,-4 13,10 9,27 9,33l55 0c7,-26 2,-53 -21,-67 -44,-28 -137,-16 -169,41 -5,9 -12,29 -12,43z"/>
    <path class="fil6" d="M7815 1587c4,16 27,38 36,46 54,46 126,54 195,35 62,-17 115,-51 151,-98 8,-10 29,-37 33,-51l-70 -21c-9,13 -9,17 -21,32 -26,31 -56,50 -95,62 -28,8 -63,9 -93,3 -22,-5 -59,-17 -69,-36l-33 14c-12,5 -23,9 -34,14z"/>
    <path class="fil7" d="M8488 1170l2 0 5 -7c42,-39 68,-59 123,-87 39,-19 85,-31 129,-37 17,-3 34,-2 52,-4 57,-3 124,12 171,40 44,27 76,66 96,115 15,39 19,77 18,122l28 0c0,-50 -3,-89 -15,-127 -12,-41 -36,-80 -64,-109 -13,-13 -23,-21 -39,-32 -39,-26 -75,-40 -129,-48 -34,-5 -98,-2 -132,4 -35,7 -75,20 -106,35 -16,8 -31,16 -46,24 -36,22 -70,48 -99,77 -6,5 -15,11 -16,20 5,1 17,10 22,14z"/>
    <path class="fil6" d="M8347 2079c-10,0 -23,1 -30,-12 -17,-33 5,-105 44,-105 9,0 19,0 26,7 20,23 0,110 -40,110zm-103 34c53,0 48,4 52,-10 2,-5 3,-9 4,-14 8,6 9,27 53,27 15,0 32,-6 42,-12 65,-40 76,-154 20,-175 -20,-8 -39,-8 -60,1 -10,5 -15,10 -24,16l16 -73c1,-9 4,-17 4,-26l-54 0c-15,64 -29,136 -43,201 -3,11 -5,23 -8,34 -2,14 -9,31 -2,31z"/>
    <path class="fil8" d="M8893 1475c-9,16 -19,31 -28,44 7,6 23,5 30,11 -7,16 -47,66 -60,69 -4,9 -52,37 -67,41 -9,6 -22,10 -34,13 -12,4 -27,5 -39,9l8 73c7,-4 37,-8 48,-11 45,-11 85,-29 123,-53 33,-21 54,-39 80,-65 11,-11 36,-37 42,-50 -6,-1 -74,-72 -85,-83 -7,-7 -9,-7 -10,-13l-8 15z"/>
    <path class="fil6" d="M8175 1999l-65 0c4,-17 18,-40 38,-40 32,0 30,17 27,40zm-58 121c32,0 55,-7 75,-24 5,-5 14,-17 17,-23 3,-6 4,-11 6,-16l-51 0c-8,15 -13,23 -35,26 -8,0 -18,-3 -22,-7 -11,-9 -10,-33 -7,-38 2,-5 8,-4 15,-4l109 0c14,-28 17,-114 -60,-114 -28,0 -57,13 -71,26l-12 12c-40,44 -66,162 36,162z"/>
    <path class="fil6" d="M8941 1999l-65 0c0,-8 8,-22 12,-26 20,-22 55,-19 55,9l-2 17zm-130 53c0,47 27,68 73,68 25,0 48,-6 63,-17 11,-7 23,-20 29,-31 2,-5 3,-10 5,-15l-51 0c-8,15 -14,24 -35,26 -40,3 -29,-39 -29,-49l124 0c1,-15 26,-84 -31,-108 -41,-17 -92,7 -114,33 -20,24 -34,61 -34,93z"/>
    <path class="fil6" d="M8714 2092l0 0zm-31 -12c-11,0 -25,0 -25,-20 0,-15 11,-23 22,-28 13,-7 25,-6 44,-6 -3,6 -8,54 -41,54zm31 12c0,8 -1,12 -1,21l48 0 6 -48c4,-14 7,-31 10,-45 6,-31 19,-64 -6,-85 -26,-22 -126,-27 -143,45l55 0c1,-16 14,-27 33,-26 20,2 18,21 14,39 -37,0 -59,2 -83,14 -49,25 -69,99 -5,110 21,3 43,-3 58,-14 5,-3 9,-8 14,-11z"/>
    <path class="fil9" d="M9957 1582c7,0 4,-1 16,7 4,3 8,5 13,8l162 103c4,3 8,5 13,8 3,2 4,3 7,5l6 6c24,3 55,2 79,-1 26,-2 47,-8 72,-12 -2,-6 0,-4 -6,-7l-30 -19c-8,-4 -17,-13 -25,-14 -26,6 -71,5 -97,-1 -57,-13 -96,-41 -128,-87 -10,-15 -28,-54 -30,-76 -1,1 2,1 -1,1 -4,-4 -31,-21 -38,-25 -8,-5 -29,-21 -39,-22 0,24 2,48 7,71 3,14 12,44 19,55z"/>
    <path class="fil6" d="M9380 2086c-13,0 -22,-3 -28,-14 -20,-36 7,-135 30,-166 24,-31 75,-34 75,21 0,46 -21,159 -77,159zm-73 -44c0,19 5,37 15,52 22,33 77,29 108,2 15,-13 23,-23 33,-41 19,-36 49,-139 15,-182 -13,-16 -29,-20 -52,-20 -75,0 -105,93 -115,153 -2,10 -4,25 -4,36z"/>
    <path class="fil6" d="M9119 2010c52,0 18,-1 47,-23 22,-16 73,-23 73,29 0,33 -25,71 -63,71 -19,0 -36,-9 -36,-27l0 -8 -21 0c-19,0 -17,-10 -17,20 0,24 26,45 55,45 33,0 50,-2 77,-23 34,-25 53,-79 37,-117 -8,-18 -29,-31 -54,-31 -26,0 -42,11 -58,21l15 -58c2,-5 4,-17 6,-20l110 0c2,-5 3,-12 4,-18 1,-5 6,-14 -1,-14l-136 0c-5,0 -11,28 -13,37 -3,13 -7,26 -10,40 -4,14 -7,26 -10,40l-8 29c-1,5 -2,7 3,7z"/>
    <path class="fil10" d="M9422 1566l-39 17c4,12 23,33 32,40 12,10 26,18 44,25 39,15 83,13 123,2 45,-12 60,-24 93,-48 17,-13 59,-61 63,-79 -9,-2 -41,-11 -46,-14l-3 0c1,5 1,3 -3,8 -26,38 -60,64 -108,76 -27,7 -60,8 -89,4 -33,-5 -48,-16 -67,-31z"/>
    <path class="fil11" d="M9352 1312c20,0 40,0 60,0 13,0 14,-3 22,-9 5,-4 13,-7 17,-12 7,-23 53,-176 53,-185l-38 -2 -1 4 -3 12 -6 20 -3 13 -4 13 -5 19 -26 -1c2,-9 5,-24 10,-30 0,-5 1,-11 4,-14 0,-4 0,-5 1,-9 2,-4 1,-3 3,-5 0,-6 3,-16 6,-20l0 -4 -27 -2c-8,-1 -11,-2 -19,-2l-23 106c-3,19 -7,35 -11,54 -2,9 -3,16 -5,26 -2,7 -5,19 -5,28z"/>
    <path class="fil11" d="M7912 1296l-1 1 -6 22c15,-8 21,-16 55,-31 103,-44 246,-28 285,91 7,24 9,51 5,77 -2,15 -13,53 -20,63 -4,14 -25,41 -33,51 -36,47 -89,81 -151,98 -69,19 -141,11 -195,-35 -9,-8 -32,-30 -36,-46 -6,1 -3,1 -4,1 -1,0 -4,2 -5,3 -4,1 -5,2 -9,3l1 4c4,4 7,11 10,15 3,5 8,10 10,14 5,4 8,9 13,13 5,5 9,7 14,13 9,4 15,11 31,18 3,2 7,4 10,6 6,1 7,3 12,4 5,2 8,2 12,5 7,0 15,3 22,4 16,3 34,4 51,3 29,-1 46,-8 71,-13l34 -12 17 -7c26,-7 85,-55 104,-79 27,-35 54,-77 59,-125 1,-32 5,-47 -4,-79 -14,-51 -51,-92 -99,-112 -7,-2 -27,-8 -31,-10 -47,-8 -76,-10 -124,0 -18,3 -37,9 -52,16 -19,8 -31,16 -46,24z"/>
    <path class="fil12" d="M8134 1256c4,2 24,8 31,10 48,20 85,61 99,112 9,32 5,47 4,79l55 0 1 0c0,-15 4,-32 5,-48 3,-47 -8,-87 -35,-122 -14,-19 -34,-34 -59,-47 -12,-6 -23,-11 -37,-16 -6,-2 -37,-9 -38,-11l-3 0c-1,6 -19,40 -23,43z"/>
    <path class="fil13" d="M10037 1531c7,0 5,-1 14,6l137 86c8,5 39,23 43,30 46,-1 99,-19 138,-44 5,-3 13,-6 15,-10l-34 -21c-6,-5 -2,1 -4,-6 -10,5 -18,9 -29,13 -19,7 -40,12 -62,13 -44,3 -86,-8 -113,-29 -14,-11 -24,-22 -34,-38 -6,-10 -19,-39 -19,-52l-3 -7 0 0c-6,-3 -11,-6 -16,-10 -8,-5 -41,-27 -48,-29 -1,19 0,36 3,54 2,11 8,38 12,44z"/>
    <path class="fil6" d="M9660 2090c-27,0 -34,-6 -34,-28 0,-26 37,-39 62,-39l30 0c0,14 -8,34 -16,46 -8,10 -24,21 -42,21zm-41 -113l34 0c11,-22 16,-30 47,-30 11,0 23,5 26,12 5,9 1,20 0,31 -2,11 4,7 -27,7 -41,0 -82,10 -103,46 -21,36 -5,76 47,76 12,0 29,-5 37,-9 5,-4 8,-6 13,-10 10,-8 6,-7 12,-11l-2 24 33 0c0,-38 29,-124 29,-150 0,-15 -7,-24 -16,-30 -27,-17 -81,-12 -105,5 -9,6 -24,26 -25,39z"/>
    <path class="fil6" d="M10105 2092l-7 0c-52,0 -44,-76 -19,-112 25,-38 96,-51 96,16 0,39 -26,96 -70,96zm-14 27c43,0 76,-16 99,-51 36,-55 35,-145 -47,-145 -110,0 -137,115 -114,162 10,20 32,34 62,34z"/>
    <path class="fil14" d="M7844 1357c3,-5 11,-13 14,-17 6,-6 11,-10 17,-15 7,-8 25,-22 36,-28l1 -1c6,-29 56,-178 54,-190 -5,0 -22,1 -24,-4l-32 112 -24 -2 32 -111c-6,3 -35,1 -41,-1l-3 0c4,15 -48,211 -51,247l21 10z"/>
    <path class="fil6" d="M10045 1288l-13 27c-8,23 -16,41 -21,66 -5,23 -10,55 -8,80 1,13 2,28 6,41 2,22 20,61 30,76 32,46 71,74 128,87 26,6 71,7 97,1 12,-2 26,-5 37,-9 9,-3 25,-10 32,-11l39 -21c30,-17 43,-29 67,-50 10,-9 18,-19 29,-29 2,-5 7,-9 11,-14 3,-4 6,-9 10,-12 4,-8 15,-21 18,-29l-15 -5c-6,6 -12,22 -19,25 -1,3 0,1 -2,4 0,0 -2,3 -2,3 -2,3 -3,4 -5,7 -2,2 -3,4 -5,6l-5 5c-9,13 -21,23 -32,33 -10,8 -27,25 -38,30 -2,4 -10,7 -15,10 -39,25 -92,43 -138,44 -49,2 -94,-11 -126,-33 -16,-12 -28,-23 -40,-39 -8,-10 -24,-34 -28,-50 -4,-6 -10,-33 -12,-44 -3,-18 -4,-35 -3,-54 1,-25 5,-50 12,-73 4,-13 19,-53 25,-60 4,-11 19,-34 26,-43l21 -29c4,-4 5,-4 8,-8l-7 -5c-2,-2 -4,-4 -6,-5 -6,6 -10,12 -16,19 -8,9 -40,59 -40,59z"/>
    <path class="fil5" d="M8105 1661l16 50c9,-6 33,-13 71,-42l38 -33c16,-20 23,-22 44,-56 17,-26 27,-47 37,-77 4,-10 12,-34 12,-46l-55 0c-5,48 -32,90 -59,125 -19,24 -78,72 -104,79z"/>
    <path class="fil7" d="M9037 1487c-2,9 -12,25 -17,32 -2,6 -20,34 -24,37 -6,13 -31,39 -42,50 -26,26 -47,44 -80,65 -38,24 -78,42 -123,53 -11,3 -41,7 -48,11 6,27 -5,29 20,24 75,-16 130,-35 193,-82 35,-27 63,-52 90,-87 45,-59 80,-129 96,-206l-28 0c-5,24 -16,57 -25,80 -2,4 -4,8 -6,12 -1,2 -1,4 -2,6 -1,1 -1,2 -2,3 -1,2 -1,1 -2,2z"/>
    <path class="fil6" d="M10256 1990c0,52 96,39 96,63 0,14 -3,21 -14,29 -19,14 -63,10 -63,-12l0 -13c-44,0 -38,-2 -39,10 -5,34 23,52 55,52 38,0 70,-7 90,-39 14,-23 16,-54 -15,-67 -42,-16 -82,-10 -70,-43 10,-25 70,-27 70,-3l0 13 36 0c1,-12 7,-31 -11,-44 -19,-14 -55,-16 -81,-8 -12,4 -28,12 -36,21l-9 12c-4,7 -9,18 -9,29z"/>
    <path class="fil6" d="M9866 1953c1,-9 4,-16 4,-26 -41,0 -34,-5 -39,21 -2,8 -4,15 -5,23l-30 142 36 0 10 -48c6,-29 11,-69 28,-91 21,-29 78,-28 78,5 0,19 -3,21 -6,38 -3,15 -20,88 -20,96l36 0c0,-5 2,-11 3,-18l19 -88c3,-12 6,-24 6,-37 0,-46 -60,-55 -94,-37 -14,7 -20,16 -26,20z"/>
    <path class="fil15" d="M8574 1137c3,-4 5,-5 10,-8 10,-7 18,-12 30,-18l31 -16c10,-4 26,-13 36,-13 6,-6 68,-19 79,-17 4,-3 13,-3 19,-2 6,-4 41,-2 49,0l35 6c50,7 98,36 123,61 26,25 54,71 61,123l5 36 1 23 20 0c0,-168 -103,-268 -270,-271 -65,-1 -119,14 -170,38 -46,21 -60,33 -96,60 -11,9 -19,18 -27,23 3,7 8,10 14,14 10,-7 40,-36 50,-39z"/>
    <path class="fil16" d="M8681 1082c13,12 48,48 65,65l11 10 13 -1c9,-1 29,-2 35,3 8,-1 21,1 26,5 20,2 50,25 59,35 13,14 27,34 34,59 2,5 5,15 4,22 4,6 4,20 5,28l22 20 4 -16 54 0c-4,-8 -142,-143 -156,-157l-77 -79c-16,-16 -7,-8 -20,-11 -11,-2 -73,11 -79,17z"/>
    <path class="fil17" d="M10149 1233l9 4c4,1 6,1 10,3 7,2 13,4 20,5 7,4 31,9 40,13 12,-18 21,-28 41,-40 18,-10 39,-15 66,-15l3 -14 3 -15 4 -22 3 -16 2 -12c-10,1 -26,0 -38,2 -32,3 -60,13 -86,29 -34,21 -54,46 -77,78z"/>
    <path class="fil16" d="M9988 1250c7,7 54,32 57,38 0,0 32,-50 40,-59 6,-7 10,-13 16,-19 2,1 4,3 6,5l7 5c-3,4 -4,4 -8,8l-21 29c-7,9 -22,32 -26,43 4,-2 3,-1 7,0 0,0 4,4 5,4 8,6 28,16 32,22 5,-13 11,-29 17,-42 5,-12 14,-30 20,-38 2,-5 6,-8 6,-13 -6,-2 -20,-5 -25,-9 6,-10 13,-20 20,-28 -5,-2 -24,-14 -30,-18l-29 -18c-3,-2 -6,-4 -9,-7 -4,-1 -7,-2 -9,-6 -7,5 -15,15 -22,23 -3,3 -7,7 -10,11 -10,13 -42,57 -44,69z"/>
    <path class="fil6" d="M8466 2113l55 0c7,-29 13,-59 20,-89 7,-33 18,-50 59,-50 5,0 3,1 8,2 3,-5 5,-18 6,-24 2,-6 4,-22 6,-26 -56,0 -55,20 -70,31l6 -31c-61,0 -52,-5 -55,14 -8,48 -25,127 -35,173z"/>
    <path class="fil18" d="M10333 1646c7,0 8,2 16,7l41 29c28,-14 53,-27 74,-43 12,-9 21,-16 33,-26 8,-7 25,-22 30,-29l-59 -38c-11,10 -19,20 -29,29 -24,21 -37,33 -67,50l-39 21z"/>
    <path class="fil19" d="M10363 1061l-6 31c42,-1 85,14 117,38 3,3 5,3 5,6 5,3 20,15 21,21 5,3 12,14 14,19l6 8 42 26c4,2 5,3 8,5l82 51c0,-8 -1,-15 -2,-23 -1,-8 -3,-16 -3,-23 -40,-23 -97,-62 -140,-88l-104 -66c-7,-5 -29,-20 -36,-22l-4 17z"/>
    <path class="fil20" d="M10175 1065c2,3 5,4 8,6l66 41c7,0 16,-5 23,-8 9,-2 18,-5 26,-7 17,-3 41,-7 59,-5l0 0 6 -31c-14,-7 -53,-35 -63,-38 -23,5 -47,11 -67,17 -13,4 -50,19 -58,25z"/>
    <path class="fil21" d="M8490 1170l104 69c10,-7 25,-27 37,-32 3,-3 6,-4 8,-8l-55 -55c-1,-1 -3,-3 -4,-4 -5,-4 -1,-2 -6,-3 -10,3 -40,32 -50,39 -6,-4 -11,-7 -14,-14 8,-5 16,-14 27,-23 36,-27 50,-39 96,-60 51,-24 105,-39 170,-38 -4,-4 -2,0 -4,-6 -18,2 -35,1 -52,4 -44,6 -90,18 -129,37 -55,28 -81,48 -123,87l-5 7z"/>
    <path class="fil18" d="M9937 1394c9,1 41,23 49,29 7,5 14,7 15,13 1,0 1,0 1,1 0,0 0,4 0,4 0,7 -2,16 1,20 -2,-25 3,-57 8,-80 5,-25 13,-43 21,-66l-45 -28c-10,-7 -9,-8 -15,-6 -5,6 -18,44 -20,53 -7,20 -11,38 -15,60z"/>
    <path class="fil18" d="M10022 1433c7,2 40,24 48,29 5,4 10,7 16,10l0 0c1,-9 -2,-14 -1,-22 -1,-3 -1,-2 -1,-7 -1,-14 1,-45 4,-58l9 -41 6 -18c-4,-6 -24,-16 -32,-22 -1,0 -5,-4 -5,-4 -4,-1 -3,-2 -7,0 -6,7 -21,47 -25,60 -7,23 -11,48 -12,73z"/>
    <path class="fil22" d="M8691 1661l4 1 -4 -38 9 -2c-9,-14 -33,-45 -44,-61 -3,-6 -12,-15 -14,-21 -5,-4 -8,-6 -13,-10 -5,-5 -9,-8 -13,-14 -7,-10 -11,-21 -15,-34 -5,-4 -43,-59 -51,-70 -2,-3 -5,-7 -6,-9l-38 0c3,1 61,85 69,96 23,31 46,66 70,98l46 64z"/>
    <path class="fil23" d="M10367 1044c7,2 29,17 36,22l104 66c43,26 100,65 140,88 -4,-14 -6,-25 -10,-37 -3,-1 -6,-3 -9,-5l-82 -52c-3,-2 -5,-3 -8,-5l-165 -103 0 0 -6 26z"/>
    <path class="fil7" d="M8160 1213c1,2 32,9 38,11 14,5 25,10 37,16 25,13 45,28 59,47 27,35 38,75 35,122 -1,16 -5,33 -5,48l19 0c4,-10 7,-34 9,-48 2,-16 1,-38 -1,-54 -10,-78 -69,-125 -139,-148 -13,-4 -30,-10 -47,-10 -2,10 -7,8 -5,16z"/>
    <path class="fil24" d="M9047 1253c-7,-52 -35,-98 -61,-123 -25,-25 -73,-54 -123,-61 2,6 6,8 11,13l160 160c4,4 6,8 13,11z"/>
    <path class="fil25" d="M10449 1392c7,2 14,7 20,11l129 83c0,0 1,1 1,1 2,-6 6,-13 9,-18 2,-4 3,-7 4,-10 3,-6 4,-6 5,-13 -4,-1 -7,-4 -10,-6l-137 -86 -12 0c0,13 -7,26 -9,38z"/>
    <path class="fil9" d="M9040 1312l13 0 -1 -23c-5,-2 -2,0 -5,-3l-11 -11c-25,-25 -204,-199 -208,-212 -8,-2 -43,-4 -49,0 18,5 8,-5 23,9 40,40 81,80 119,121l56 56c21,21 42,42 63,63z"/>
    <path class="fil26" d="M10249 1112c-4,4 -27,15 -34,19l-31 20 -39 39c-2,3 -2,3 -4,6 -7,8 -14,18 -20,28 5,4 19,7 25,9l3 0c23,-32 43,-57 77,-78 26,-16 54,-26 86,-29 12,-2 28,-1 38,-2l2 -7 5 -25c-18,-2 -42,2 -59,5 -8,2 -17,5 -26,7 -7,3 -16,8 -23,8z"/>
    <path class="fil27" d="M10434 1433c7,2 12,7 18,11l35 22c7,4 13,8 19,12l71 44 1 -1c4,-5 17,-28 21,-34 0,0 -1,-1 -1,-1l-129 -83c-6,-4 -13,-9 -20,-11 -3,8 -4,14 -7,22 -2,5 -8,15 -8,19z"/>
    <path class="fil28" d="M10543 1299l-1 9 -6 38c8,1 4,0 13,6l13 8c2,2 3,2 5,3l65 43c1,-3 3,-10 4,-14 2,-6 3,-9 4,-16 3,-9 7,-25 7,-34l-104 -66 0 1 0 22z"/>
    <path class="fil29" d="M8475 1494c0,0 0,0 0,0l113 156c8,5 35,10 46,11 -8,-4 -16,-19 -21,-27l-138 -194c-3,18 1,37 0,54z"/>
    <path class="fil30" d="M10637 1183c-3,-7 -5,-13 -8,-20 -4,-7 -7,-13 -10,-20l-164 -104c-2,-2 -3,-2 -6,-4 -4,-2 -19,-13 -23,-14 -8,-3 -41,-4 -53,-4l0 1 165 103c3,2 5,3 8,5l82 52c3,2 6,4 9,5z"/>
    <path class="fil31" d="M10414 1471l46 30c8,5 13,5 13,10 7,-3 13,-19 19,-25l15 5c-3,8 -14,21 -18,29 11,4 21,12 31,18 5,3 9,6 14,10 6,3 12,5 16,11 3,-3 10,-13 14,-18 4,-6 10,-11 13,-19l-71 -44c-6,-4 -12,-8 -19,-12l-35 -22c-6,-4 -11,-9 -18,-11 -5,7 -7,13 -10,20 -3,4 -9,14 -10,18z"/>
    <path class="fil32" d="M10174 1719l-6 -6c-3,-2 -4,-3 -7,-5 -5,-3 -9,-5 -13,-8l-162 -103c-5,-3 -9,-5 -13,-8 -12,-8 -9,-7 -16,-7 18,40 51,74 83,94 36,23 84,39 134,43z"/>
    <path class="fil33" d="M9052 1289l-5 -36c-7,-3 -9,-7 -13,-11l-160 -160c-5,-5 -9,-7 -11,-13l-35 -6c4,13 183,187 208,212l11 11c3,3 0,1 5,3z"/>
    <path class="fil9" d="M10231 1653c-4,-7 -35,-25 -43,-30l-137 -86c-9,-7 -7,-6 -14,-6 4,16 20,40 28,50 12,16 24,27 40,39 32,22 77,35 126,33z"/>
    <path class="fil13" d="M9013 1312l27 0c-21,-21 -42,-42 -63,-63l-56 -56c-38,-41 -79,-81 -119,-121 -15,-14 -5,-4 -23,-9 -6,-1 -15,-1 -19,2 13,3 4,-5 20,11l77 79c14,14 152,149 156,157z"/>
    <path class="fil34" d="M8911 1434c-1,6 -6,19 -10,23l0 3c1,6 3,6 10,13 11,11 79,82 85,83 4,-3 22,-31 24,-37 -9,-8 -17,-17 -26,-26 -9,-9 -16,-16 -25,-25 -17,-17 -33,-35 -51,-51l-7 17z"/>
    <path class="fil35" d="M10112 1105c5,6 65,44 72,46l31 -20c7,-4 30,-15 34,-19l-66 -41c-3,-2 -6,-3 -8,-6 -17,7 -53,31 -63,40z"/>
    <path class="fil36" d="M10526 1200l6 15c0,1 0,1 0,1 3,5 4,8 4,14 3,4 3,14 4,18 9,0 22,11 30,16l81 52c0,-9 1,-13 1,-23 0,-9 0,-18 0,-27l-82 -51c-3,-2 -4,-3 -8,-5l-42 -26c2,5 6,11 6,16z"/>
    <path class="fil37" d="M10470 1354l137 86c3,2 6,5 10,6 4,-2 14,-36 15,-40l-65 -43c-2,-1 -3,-1 -5,-3l-13 -8c-9,-6 -5,-5 -13,-6l-1 9 -65 -1z"/>
    <path class="fil38" d="M9770 1072l128 1c-6,-3 -15,-2 -24,-2l11 -56c-3,0 -6,0 -9,0l-6 0c0,-1 -1,0 -1,0l-41 -1 -31 1 -14 1c0,5 -9,51 -13,56z"/>
    <path class="fil20" d="M8933 1323l-2 30 -3 25 -1 -1c6,2 24,22 29,27 14,13 79,77 81,83 1,-1 1,0 2,-2 1,-1 1,-2 2,-3 1,-2 1,-4 2,-6 2,-4 4,-8 6,-12 9,-23 20,-56 25,-80l-9 0c-4,20 -11,39 -16,57l-21 -2 3 -10 -8 -5c-8,-8 -35,-32 -38,-40l-42 -1 12 -55 -22 -20 0 15z"/>
    <path class="fil17" d="M7888 1375l-30 -11c-4,3 -14,-6 -14,-6 0,-1 0,-1 0,-1l-21 -10c3,-36 55,-232 51,-247 -9,0 -13,-1 -20,-2 -3,5 -5,23 -6,31 -3,11 -5,22 -7,31 -3,18 -36,182 -36,191l80 35c2,-4 3,-6 3,-11z"/>
    <path class="fil39" d="M10089 1479c0,13 13,42 19,52 10,16 20,27 34,38 27,21 69,32 113,29 4,-5 -10,-10 -18,-16 -5,-3 -19,-12 -22,-13 -10,-4 -17,-5 -27,-9 -5,-3 -16,-10 -21,-14 -12,-11 -23,-25 -29,-41 -5,-1 -44,-27 -47,-30 -3,2 -3,-3 -2,4z"/>
    <path class="fil40" d="M10458 1354l12 0 65 1 1 -9 6 -38c-2,3 -3,3 -3,8l-105 -16c-4,0 -11,-2 -15,-2 0,8 1,20 0,29 -1,8 -4,19 -4,27l43 0z"/>
    <path class="fil41" d="M8922 1400l-4 17c18,16 34,34 51,51 9,9 16,16 25,25 9,9 17,18 26,26 5,-7 15,-23 17,-32 -2,-6 -67,-70 -81,-83 -5,-5 -23,-25 -29,-27l-5 23z"/>
    <path class="fil42" d="M10064 1147c2,4 5,5 9,6 3,3 6,5 9,7l29 18c6,4 25,16 30,18 2,-3 2,-3 4,-6l39 -39c-7,-2 -67,-40 -72,-46 -12,9 -43,33 -48,42z"/>
    <path class="fil43" d="M9648 1071l-1 -1 123 2c4,-5 13,-51 13,-56l14 -1 -31 0 -36 -1 -23 1 -18 1c-4,18 -8,36 -11,55l-30 0z"/>
    <path class="fil44" d="M8672 1663c6,0 15,1 19,-2l-46 -64c-24,-32 -47,-67 -70,-98 -8,-11 -66,-95 -69,-96l-20 0 146 203c2,4 4,6 6,9l34 48z"/>
    <path class="fil45" d="M8340 1074l25 0 12 -59 -105 0c1,9 12,32 14,44 3,12 4,6 5,12l47 2c1,0 1,0 2,1z"/>
    <path class="fil46" d="M8480 1416c1,8 6,12 10,18l163 229 19 0 -34 -48c-2,-3 -4,-5 -6,-9l-146 -203 20 0 38 0c5,0 10,0 14,-3l-75 0c-2,5 -4,11 -3,16z"/>
    <path class="fil47" d="M7983 1693l-8 4 -13 63c21,0 35,-1 55,-4 6,-1 13,-1 17,-3 3,-9 2,-14 6,-23l2 -4c0,-2 1,-6 2,-9 2,-14 3,-24 10,-37 -25,5 -42,12 -71,13z"/>
    <path class="fil48" d="M8803 1041c167,3 270,103 270,271l11 0c1,-45 -3,-83 -18,-122 -20,-49 -52,-88 -96,-115 -47,-28 -114,-43 -171,-40 2,6 0,2 4,6z"/>
    <path class="fil13" d="M9931 1456c10,1 31,17 39,22 7,4 34,21 38,25 3,0 0,0 1,-1 -4,-13 -5,-28 -6,-41 -3,-4 -1,-13 -1,-20 0,0 0,-4 0,-4 0,-1 0,-1 -1,-1 -1,-6 -8,-8 -15,-13 -8,-6 -40,-28 -49,-29 -3,21 -5,39 -6,62z"/>
    <path class="fil49" d="M8475 1440l138 194c5,8 13,23 21,27l19 2 -163 -229c-4,-6 -9,-10 -10,-18l-5 24z"/>
    <path class="fil50" d="M10619 1143c-2,-2 -5,-8 -7,-10 -2,-5 -4,-8 -7,-13 -12,-17 -24,-28 -39,-41 -22,-19 -49,-33 -76,-43 -14,-4 -47,-15 -64,-15 4,1 19,12 23,14 3,2 4,2 6,4l164 104z"/>
    <path class="fil44" d="M10341 1174c11,0 80,11 94,13 5,1 87,16 91,13 0,-5 -4,-11 -6,-16l-6 -8c-8,1 -72,-10 -85,-12l-64 -10c-6,0 -12,-2 -20,-2l-4 22z"/>
    <path class="fil34" d="M8574 1137c5,1 1,-1 6,3 1,1 3,3 4,4l55 55c6,-1 4,-1 9,-4 9,-6 20,-12 31,-17l1 0 -34 -33c-6,-6 -11,-10 -16,-16l-13 -13c-4,-4 -2,-1 -3,-5 -12,6 -20,11 -30,18 -5,3 -7,4 -10,8z"/>
    <path class="fil51" d="M10359 1531c6,3 9,5 14,8 5,3 8,5 13,9 7,-5 12,-10 19,-16 6,-5 12,-10 17,-16l32 20 5 -5c2,-2 3,-4 5,-6 2,-3 3,-4 5,-7 0,0 2,-3 2,-3 2,-3 1,-1 2,-4 0,-5 -5,-5 -13,-10l-46 -30 -39 47c-4,3 -5,3 -8,7 -3,2 -6,4 -8,6z"/>
    <path class="fil18" d="M10386 1548c-13,9 -24,16 -40,24 2,7 -2,1 4,6l34 21c11,-5 28,-22 38,-30 11,-10 23,-20 32,-33l-32 -20c-5,6 -11,11 -17,16 -7,6 -12,11 -19,16z"/>
    <path class="fil52" d="M8588 1650l-113 -156c0,0 0,0 0,0 4,22 4,35 12,55 12,31 31,58 57,77 12,9 28,19 44,24z"/>
    <path class="fil13" d="M10264 1666c8,1 17,10 25,14l30 19c6,3 4,1 6,7 7,-4 24,-8 33,-11 12,-4 21,-8 32,-13l-41 -29c-8,-5 -9,-7 -16,-7 -7,1 -23,8 -32,11 -11,4 -25,7 -37,9z"/>
    <path class="fil11" d="M9427 1381c5,1 20,6 23,6 6,0 5,-2 10,-5 25,-18 26,-16 46,-28 -4,-7 -12,-16 -18,-24 -5,-6 -15,-18 -18,-25 -6,3 -13,8 -19,12 -7,5 -11,5 -13,16 -4,15 -8,33 -11,48z"/>
    <path class="fil41" d="M8614 1111c1,4 -1,1 3,5l13 13c5,6 10,10 16,16l34 33 17 -7 20 -7c-3,-6 -2,-5 -9,-11l-43 -43c-7,-7 -13,-16 -20,-15l-31 16z"/>
    <path class="fil52" d="M10399 1236c13,0 24,3 36,4 11,2 24,4 35,6 24,4 47,7 71,11l-1 -9c-1,-4 -1,-14 -4,-18l-1 4c-5,-3 -73,-12 -86,-14 -30,-5 -57,-8 -87,-13 3,4 13,7 21,13 3,2 6,5 8,8 4,3 5,5 8,8z"/>
    <path class="fil15" d="M7918 1101l-32 111 24 2 32 -112c2,-7 8,-24 7,-30l-22 -1 -9 30z"/>
    <path class="fil53" d="M7829 1737c7,5 29,11 38,13 1,-6 2,-14 4,-19 2,-7 2,-1 5,-17l7 -33c1,-4 0,-3 3,-4 -3,-2 -7,-4 -10,-6 -16,-7 -22,-14 -31,-18 -3,15 -5,27 -8,42 -3,11 -8,31 -8,42z"/>
    <path class="fil25" d="M8785 1184c11,0 31,6 39,10 32,16 47,36 60,68 2,6 4,14 6,19l43 42 0 -15c-1,-8 -1,-22 -5,-28 -1,3 -1,2 -2,4 -4,-7 -94,-95 -109,-110 -7,-8 -15,-12 -12,-15 -6,-5 -26,-4 -35,-3 -4,2 -6,1 -11,1 6,5 22,21 26,27z"/>
    <path class="fil20" d="M8645 1095c7,-1 13,8 20,15l43 43c7,6 6,5 9,11l17 -4 23 -3 -11 -10c-17,-17 -52,-53 -65,-65 -10,0 -26,9 -36,13z"/>
    <path class="fil54" d="M10541 1257l2 19 104 66c2,-2 4,-25 4,-26l-81 -52c-8,-5 -21,-16 -30,-16l1 9z"/>
    <path class="fil55" d="M8789 1582c-1,1 -1,1 -1,1 -5,4 -9,7 -14,8 -4,4 -21,12 -27,13l0 1c2,7 6,12 10,18 2,3 4,5 6,8 3,3 4,5 5,9 15,-4 63,-32 67,-41 -5,0 -9,-10 -12,-14 -4,-6 -9,-9 -11,-17 -5,4 -18,14 -23,14z"/>
    <path class="fil56" d="M8838 1545c-2,5 -9,11 -14,13 -3,4 -8,7 -12,10 2,8 7,11 11,17 3,4 7,14 12,14 13,-3 53,-53 60,-69 -7,-6 -23,-5 -30,-11l-3 0c0,6 -6,9 -10,14 -4,5 -8,10 -14,12z"/>
    <path class="fil38" d="M9869 1015c0,0 1,-1 1,0l6 0c3,0 6,0 9,0l-11 56c9,0 18,-1 24,2l21 1 0 0c0,-11 4,-20 6,-30 2,-9 6,-21 6,-29l-13 -1c-3,0 -8,-1 -11,-1 -5,0 -3,-1 -7,1 0,-7 3,-11 3,-19l-18 0c-2,7 -3,13 -5,19l-11 1z"/>
    <path class="fil49" d="M10338 1189c7,0 17,2 25,4 51,8 107,15 159,24 3,0 8,3 10,-2l-6 -15c-4,3 -86,-12 -91,-13 -14,-2 -83,-13 -94,-13l-3 15z"/>
    <path class="fil17" d="M9422 1564l0 2c19,15 34,26 67,31 29,4 62,3 89,-4 48,-12 82,-38 108,-76 4,-5 4,-3 3,-8 -2,-3 -7,-3 -11,-3 -7,9 -9,15 -18,27 -7,8 -13,15 -21,22 -7,6 -18,14 -27,18 -44,23 -102,26 -146,4 -6,-3 -10,-5 -15,-8 -6,-5 -6,-5 -11,-12 -3,2 -14,7 -18,7z"/>
    <path class="fil57" d="M7798 1721c3,5 10,7 14,9 4,2 12,7 17,7 0,-11 5,-31 8,-42 3,-15 5,-27 8,-42 -5,-6 -9,-8 -14,-13 -5,-4 -8,-9 -13,-13 -2,4 -4,17 -5,24 -2,8 -3,15 -5,23 -3,16 -6,32 -10,47z"/>
    <path class="fil58" d="M8206 1070c2,0 4,0 5,0 5,1 2,-1 4,2l44 1c-1,-4 -8,-24 -10,-29 -3,-7 -8,-21 -9,-29l-16 0 -36 0c1,7 7,21 9,28 3,7 8,20 9,27z"/>
    <path class="fil47" d="M7919 1759c6,0 11,1 19,1 8,0 16,0 24,0l13 -63 8 -4c-17,1 -35,0 -51,-3 0,9 -5,27 -7,35 -1,6 -2,12 -3,17 -1,5 -3,11 -3,17z"/>
    <path class="fil59" d="M10335 1203c0,0 1,0 1,0l5 1c10,2 17,4 21,3 30,5 57,8 87,13 13,2 81,11 86,14l1 -4c0,-6 -1,-9 -4,-14 0,0 0,0 0,-1 -2,5 -7,2 -10,2 -52,-9 -108,-16 -159,-24 -8,-2 -18,-4 -25,-4l-3 14z"/>
    <path class="fil60" d="M10352 1117l112 18c7,2 14,4 15,1 0,-3 -2,-3 -5,-6 -32,-24 -75,-39 -117,-38l0 0 -5 25z"/>
    <path class="fil61" d="M8090 1071c-3,-2 -1,-1 -4,-2 -3,-1 -3,-1 -5,0 -1,-11 -17,-45 -17,-54l-2 0c-10,0 -25,1 -32,-1l-16 56 76 1z"/>
    <path class="fil62" d="M10418 1280l125 19 0 -22 -132 -20c3,7 4,16 7,23z"/>
    <path class="fil63" d="M8751 1534c5,3 15,19 19,25 3,4 6,8 9,12 1,3 3,5 4,7 5,6 1,3 6,4 5,0 18,-10 23,-14 4,-3 9,-6 12,-10 -4,-1 -8,-9 -11,-13 -3,-5 -6,-8 -9,-13 -7,-9 -13,-19 -20,-28 -2,2 -11,13 -15,16l-4 4c-2,1 -3,2 -5,3 -3,3 -6,4 -9,7z"/>
    <path class="fil64" d="M10411 1257l132 20 0 -1 -2 -19c-24,-4 -47,-7 -71,-11 -11,-2 -24,-4 -35,-6 -12,-1 -23,-4 -36,-4 2,4 1,2 3,5 2,2 2,3 4,5 2,4 3,7 5,11z"/>
    <path class="fil65" d="M10350 1124l-2 12c6,0 12,2 18,3l126 19c6,1 6,2 8,-1 -1,-6 -16,-18 -21,-21 -1,3 -8,1 -15,-1l-112 -18 -2 7z"/>
    <path class="fil66" d="M8054 1680c-7,13 -8,23 -10,37 -1,3 -2,7 -2,9l-2 4c-4,9 -3,14 -6,23 12,0 29,-6 40,-9 0,-7 2,-13 4,-19 1,-6 2,-12 4,-19 1,-8 7,-30 6,-38l-34 12z"/>
    <path class="fil67" d="M8732 1611l-32 11 -9 2 4 38 0 0c12,-4 27,-5 39,-9 12,-3 25,-7 34,-13 -1,-4 -2,-6 -5,-9 -2,-3 -4,-5 -6,-8 -4,-6 -8,-11 -10,-18l-15 6z"/>
    <path class="fil68" d="M7775 1705c3,5 17,15 23,16 4,-15 7,-31 10,-47 2,-8 3,-15 5,-23 1,-7 3,-20 5,-24 -2,-4 -7,-9 -10,-14 -3,-4 -6,-11 -10,-15 -4,19 -8,37 -11,55 -2,10 -4,19 -6,27 -1,5 -4,22 -6,25z"/>
    <path class="fil69" d="M7779 1583l-6 27c-4,19 -16,68 -16,80 6,6 11,13 18,15 2,-3 5,-20 6,-25 2,-8 4,-17 6,-27 3,-18 7,-36 11,-55l-1 -4c-2,-6 -4,-8 -6,-15 -6,0 -8,2 -12,4z"/>
    <path class="fil25" d="M9442 1757c10,0 23,3 34,3l-11 -27c-4,-9 -17,-37 -18,-45 0,0 -31,-11 -35,-13 -3,4 -3,-4 -3,5l33 77z"/>
    <path class="fil70" d="M10345 1152c8,0 14,2 20,2l64 10c13,2 77,13 85,12 -2,-5 -9,-16 -14,-19 -2,3 -2,2 -8,1l-126 -19c-6,-1 -12,-3 -18,-3l-3 16z"/>
    <path class="fil71" d="M9317 1600c0,6 -3,17 -4,23l-13 66c2,5 6,7 9,11 4,4 7,7 11,10l6 -23c2,-12 15,-68 13,-74 0,-4 -1,-5 -4,-9 -3,-5 -3,-5 -3,-10l-15 6z"/>
    <path class="fil72" d="M8126 1072l58 0 -7 -2c-2,0 -6,0 -6,0 -1,0 -1,-1 -1,-1l-19 -54 -7 0 -36 0c1,9 6,20 9,29 2,5 3,9 5,14 2,4 3,8 4,14z"/>
    <path class="fil51" d="M10468 1546l59 38 1 0c3,-4 7,-7 11,-12 4,-6 6,-7 11,-13 -4,-6 -10,-8 -16,-11 -5,-4 -9,-7 -14,-10 -10,-6 -20,-14 -31,-18 -4,3 -7,8 -10,12 -4,5 -9,9 -11,14z"/>
    <path class="fil73" d="M8271 1015l1 0 105 0 1 -1c1,-6 3,-12 3,-19l-1 0 -132 0c2,7 5,13 6,19 6,0 13,-1 17,1z"/>
    <path class="fil74" d="M8700 1622l32 -11c-8,-1 -2,0 -4,-1 -4,-2 -19,-24 -21,-27 -4,-7 -19,-24 -20,-32 -19,0 -31,-5 -45,-11 2,6 11,15 14,21 11,16 35,47 44,61z"/>
    <path class="fil75" d="M8090 1071l36 1c-1,-6 -2,-10 -4,-14 -2,-5 -3,-9 -5,-14 -3,-9 -8,-20 -9,-29l-2 0 -42 0c0,9 16,43 17,54 2,-1 2,-1 5,0 3,1 1,0 4,2z"/>
    <path class="fil76" d="M8088 1668c1,8 -5,30 -6,38 -2,7 -3,13 -4,19 -2,6 -4,12 -4,19 0,0 35,-12 50,-20 -1,-5 -3,-6 -3,-13l-16 -50 -17 7z"/>
    <path class="fil37" d="M9380 1674l32 77c6,3 23,5 30,6l-33 -77c0,-9 0,-1 3,-5 -3,-2 -16,-9 -20,-11 -5,3 -8,7 -12,10z"/>
    <path class="fil77" d="M9300 1689l13 -66c1,-6 4,-17 4,-23l-26 11c-9,4 -17,8 -25,12 2,4 4,12 6,18 3,7 5,12 8,18 4,8 14,26 20,30z"/>
    <path class="fil51" d="M10103 1326l-6 18c8,2 28,16 34,19 0,-1 7,-25 9,-30 2,-5 3,-9 5,-14 2,-6 4,-9 6,-15 -6,-3 -11,-6 -16,-10 -6,-4 -10,-5 -15,-10 -6,13 -12,29 -17,42z"/>
    <path class="fil74" d="M8544 1403c1,2 4,6 6,9 8,11 46,66 51,70 -7,-33 -4,-45 1,-76 1,-7 0,-6 -9,-6 -11,0 -24,-1 -35,0l0 0c-4,3 -9,3 -14,3z"/>
    <path class="fil78" d="M7749 1597l-12 63c-1,4 -1,1 0,4 1,5 17,23 20,26 0,-12 12,-61 16,-80l6 -27c-2,1 -13,6 -15,7l-12 5c-4,2 -1,0 -3,2z"/>
    <path class="fil31" d="M8928 1280c1,-7 -2,-17 -4,-22 -5,-1 -1,1 -5,-2 -1,-1 -3,-3 -3,-3l-88 -87c2,-2 -2,-2 3,-2 -5,-4 -18,-6 -26,-5 -3,3 5,7 12,15 15,15 105,103 109,110 1,-2 1,-1 2,-4z"/>
    <path class="fil16" d="M9972 1281c6,-2 5,-1 15,6l45 28 13 -27c-3,-6 -50,-31 -57,-38 -6,5 -13,23 -16,31z"/>
    <path class="fil79" d="M10419 1298c4,0 11,2 15,2l105 16c0,-5 1,-5 3,-8l1 -9 -125 -19c0,7 1,9 1,18z"/>
    <path class="fil5" d="M8830 1509l32 10 3 0c9,-13 19,-28 28,-44 -5,-1 -1,1 -6,-3 0,0 -3,-3 -3,-3l-18 -19 -26 44c-3,5 -8,9 -10,15z"/>
    <path class="fil80" d="M10289 1566l25 14c3,3 1,1 3,5 11,-4 19,-8 29,-13 16,-8 27,-15 40,-24 -5,-4 -8,-6 -13,-9 -5,-3 -8,-5 -14,-8 -11,8 -20,14 -32,21 -7,4 -29,14 -38,14z"/>
    <path class="fil81" d="M9611 1678c-1,8 7,22 10,29 4,9 9,22 13,29 10,-2 17,-8 26,-10 0,-8 -1,-9 -2,-16l-15 -46 -32 14z"/>
    <path class="fil82" d="M7867 1750c4,1 8,2 13,3 4,1 10,1 14,3 0,0 0,-1 0,-1l1 -2c3,-11 12,-64 15,-67 -4,-3 -7,-3 -12,-5 -5,-1 -6,-3 -12,-4 -3,1 -2,0 -3,4l-7 33c-3,16 -3,10 -5,17 -2,5 -3,13 -4,19z"/>
    <path class="fil63" d="M9320 1710c3,5 7,9 13,10 3,-4 7,-8 9,-12 5,-11 6,-25 9,-36 2,-10 6,-27 7,-37 -1,-1 -17,-21 -19,-22 2,6 -11,62 -13,74l-6 23z"/>
    <path class="fil83" d="M9532 1695c3,8 23,57 26,61 10,-2 21,-5 29,-6l-21 -50c-1,-4 -2,-6 -3,-9l-31 4z"/>
    <path class="fil84" d="M8259 1073l81 1c-1,-1 -1,-1 -2,-1l-47 -2c-1,-6 -2,0 -5,-12 -2,-12 -13,-35 -14,-44l-1 0 -31 0c1,8 6,22 9,29 2,5 9,25 10,29z"/>
    <path class="fil85" d="M10085 1450c-1,8 2,13 1,22l3 7c-1,-7 -1,-2 2,-4 3,3 42,29 47,30 -4,-5 -7,-16 -9,-23 -1,-4 -2,-8 -3,-13 -1,-5 -1,-11 -3,-16 -2,-5 -30,-19 -35,-25 -2,5 -2,4 -2,12 0,5 1,5 -1,10z"/>
    <path class="fil51" d="M8924 1258c-7,-25 -21,-45 -34,-59 -9,-10 -39,-33 -59,-35 -5,0 -1,0 -3,2l88 87c0,0 2,2 3,3 4,3 0,1 5,2z"/>
    <path class="fil80" d="M10088 1385c-3,13 -5,44 -4,58 0,5 0,4 1,7 2,-5 1,-5 1,-10 0,-8 0,-7 2,-12 5,6 33,20 35,25 0,-12 -2,-41 2,-49l-30 -19c-1,-1 -2,-1 -3,-2 0,0 -2,1 -2,1 0,0 -1,1 -1,1 0,-1 -1,0 -1,0z"/>
    <path class="fil86" d="M8706 1550c1,6 6,10 11,18 1,0 1,1 1,1l24 34c0,0 0,0 0,0l5 1c6,-1 23,-9 27,-13l-5 0 -26 -36c-5,-6 -6,-7 -7,-14 -8,4 -20,8 -30,9z"/>
    <path class="fil51" d="M9476 1760l27 0c-5,-8 -10,-22 -14,-32 -3,-6 -4,-10 -7,-16 -2,-5 -6,-12 -6,-18l-29 -6c1,8 14,36 18,45l11 27z"/>
    <path class="fil85" d="M10215 1569c3,1 17,10 22,13 8,6 22,11 18,16 22,-1 43,-6 62,-13 -2,-4 0,-2 -3,-5l-25 -14c-9,3 -27,5 -37,5 -6,1 -13,1 -19,0 -5,-1 -15,-2 -18,-2z"/>
    <path class="fil82" d="M7894 1756c8,0 15,3 25,3 0,-6 2,-12 3,-17 1,-5 2,-11 3,-17 2,-8 7,-26 7,-35 -7,-1 -15,-4 -22,-4 -3,3 -12,56 -15,67l-1 2c0,0 0,1 0,1z"/>
    <path class="fil87" d="M9648 1071l30 0c3,-19 7,-37 11,-55l18 -1 -7 0 -20 0 -10 0 -11 1c-3,7 -11,51 -11,55z"/>
    <path class="fil88" d="M9563 1691c1,3 2,5 3,9l21 50c5,-1 9,-2 14,-3 4,-1 10,-2 12,-4 -1,-2 -1,-4 -2,-7l-9 -20c-1,-3 -2,-4 -3,-7 -2,-5 -6,-15 -9,-18 1,-7 -1,-1 3,-6l-30 6z"/>
    <path class="fil76" d="M9918 1014l13 1c0,8 -4,20 -6,29 -2,10 -6,19 -6,30l18 0c0,-9 6,-30 8,-40 2,-7 2,-12 4,-20 1,-5 3,-13 4,-19l-31 0c-1,4 -1,6 -2,10 0,1 -1,5 -1,5 -1,4 0,2 -1,4z"/>
    <path class="fil31" d="M10120 1284c5,5 9,6 15,10 5,4 10,7 16,10l2 -4c7,-11 11,-20 19,-33l-28 -17c-1,-1 -2,-2 -2,-2l-2 -2c-6,8 -15,26 -20,38z"/>
    <path class="fil41" d="M10300 1023c10,3 49,31 63,38l4 -17 6 -26c-26,-2 -49,3 -73,5z"/>
    <path class="fil37" d="M8893 1322l36 35c2,-2 0,0 2,-4l2 -30 -43 -42c0,5 1,14 2,20 1,6 1,12 1,21z"/>
    <path class="fil89" d="M10088 1385c0,0 1,-1 1,0 0,0 1,-1 1,-1 0,0 2,-1 2,-1 1,1 2,1 3,2l30 19c0,-8 1,-13 2,-21 1,-7 3,-13 4,-20 -6,-3 -26,-17 -34,-19l-9 41z"/>
    <path class="fil16" d="M9031 1429c4,-10 11,-33 12,-45l-58 0c3,8 30,32 38,40l8 5z"/>
    <path class="fil90" d="M9937 1074c3,0 11,0 14,0 8,-1 5,-6 10,-32l10 -47 -18 0c-1,6 -3,14 -4,19 -2,8 -2,13 -4,20 -2,10 -8,31 -8,40z"/>
    <path class="fil91" d="M9622 1070l25 0 1 1c0,-4 8,-48 11,-55l11 -1 -10 0 -38 0 10 -1c0,9 -3,20 -4,28 -2,9 -6,19 -6,28z"/>
    <path class="fil89" d="M9503 1760c4,0 17,1 20,-1 -5,-8 -9,-22 -14,-31 -4,-10 -9,-20 -12,-29l15 0c2,0 11,0 13,-2 0,-1 1,-1 1,-1 -18,0 -33,0 -50,-2 0,6 4,13 6,18 3,6 4,10 7,16 4,10 9,24 14,32z"/>
    <path class="fil54" d="M9364 1689c4,4 5,8 7,13l12 28c1,4 5,12 5,16 8,1 17,5 24,5l-32 -77c-4,3 -4,3 -8,7l-7 7c0,0 0,1 -1,1z"/>
    <path class="fil60" d="M9342 1708c4,-2 4,-3 8,-5l14 -14c1,0 1,-1 1,-1l7 -7c4,-4 4,-4 8,-7 4,-3 7,-7 12,-10 -5,-4 -13,-9 -18,-13 -6,-5 -11,-11 -16,-16 -1,10 -5,27 -7,37 -3,11 -4,25 -9,36z"/>
    <path class="fil30" d="M8881 1406c6,4 10,9 15,14 2,3 4,4 7,7 3,3 5,6 8,7l7 -17 4 -17c-8,-3 -24,-23 -32,-30 -3,5 -5,28 -9,36z"/>
    <path class="fil92" d="M9593 1685c-4,5 -2,-1 -3,6 3,3 7,13 9,18 1,3 2,4 3,7l9 20c1,3 1,5 2,7 6,-1 7,-2 12,-3 1,0 3,-1 5,-2 5,-2 2,0 4,-2 -4,-7 -9,-20 -13,-29 -3,-7 -11,-21 -10,-29l-18 7z"/>
    <path class="fil71" d="M8784 1504c7,9 13,19 20,28 3,5 6,8 9,13 3,4 7,12 11,13 5,-2 12,-8 14,-13 -3,-1 -6,-7 -8,-10l-24 -34 -18 -5c-1,3 -3,4 -4,8z"/>
    <path class="fil93" d="M9512 1699c4,9 8,18 12,29 2,6 4,9 6,15 2,4 5,11 7,16 3,-1 17,-3 21,-3 -3,-4 -23,-53 -26,-61l-6 1c0,0 -1,0 -1,1 -2,2 -11,2 -13,2z"/>
    <path class="fil94" d="M7844 1357c0,0 0,0 0,1 0,0 10,9 14,6 4,-3 6,-8 10,-12 10,-9 25,-25 36,-31l1 -2 6 -22c-11,6 -29,20 -36,28 -6,5 -11,9 -17,15 -3,4 -11,12 -14,17z"/>
    <path class="fil60" d="M8736 1541c1,7 2,8 7,14l26 36 5 0c5,-1 9,-4 14,-8 0,0 0,0 1,-1 -5,-1 -1,2 -6,-4 -1,-2 -3,-4 -4,-7 -3,-4 -6,-8 -9,-12 -4,-6 -14,-22 -19,-25 -5,2 -10,5 -15,7z"/>
    <path class="fil95" d="M8184 1072l31 0c-2,-3 1,-1 -4,-2 -1,0 -3,0 -5,0l-15 0c-3,-6 -6,-18 -9,-26 -3,-9 -9,-20 -9,-29l-22 0 19 54c0,0 0,1 1,1 0,0 4,0 6,0l7 2z"/>
    <path class="fil15" d="M9031 1429l-3 10 21 2c5,-18 12,-37 16,-57l-22 0c-1,12 -8,35 -12,45z"/>
    <path class="fil65" d="M8687 1551c1,8 16,25 20,32 2,3 17,25 21,27 2,1 -4,0 4,1l15 -6 0 -1 -5 -1c0,0 0,0 0,0l-24 -34c0,0 0,-1 -1,-1 -5,-8 -10,-12 -11,-18 -7,1 -10,1 -19,1z"/>
    <path class="fil96" d="M7737 1660l12 -63c-7,1 -12,5 -18,7 -4,2 -13,6 -17,7 1,7 6,20 8,26l9 17c3,7 -1,3 6,6z"/>
    <path class="fil77" d="M8838 1545c6,-2 10,-7 14,-12 4,-5 10,-8 10,-14l-32 -10c-8,-2 -16,-5 -24,-8l24 34c2,3 5,9 8,10z"/>
    <path class="fil47" d="M9828 1014l41 1 11 -1c2,-6 3,-12 5,-19l-54 0c-1,8 -2,3 -3,9 0,3 0,7 0,10z"/>
    <path class="fil60" d="M8224 1015l16 0 31 0c-4,-2 -11,-1 -17,-1 -1,-6 -4,-12 -6,-19l-51 0c0,5 1,6 2,10l2 6 23 4z"/>
    <path class="fil14" d="M7858 1364l30 11 16 -54c-11,6 -26,22 -36,31 -4,4 -6,9 -10,12z"/>
    <path class="fil97" d="M9350 1703l15 34c3,1 21,7 23,9 0,-4 -4,-12 -5,-16l-12 -28c-2,-5 -3,-9 -7,-13l-14 14z"/>
    <path class="fil36" d="M8717 1164l-20 7c8,4 14,14 22,19 6,-1 11,-2 17,-4 7,-1 12,-2 19,-2 -3,-4 -7,-7 -11,-11 -4,-4 -9,-7 -10,-13l-17 4z"/>
    <path class="fil97" d="M8890 1370c8,7 24,27 32,30l5 -23 1 1c-6,-2 -2,0 -7,-4l-28 -29c-1,4 -3,20 -3,25z"/>
    <path class="fil98" d="M9622 1070c0,-9 4,-19 6,-28 1,-8 4,-19 4,-28l-10 1 -3 -1 -15 56 18 0z"/>
    <path class="fil99" d="M8874 1428c2,4 10,11 14,14 2,3 4,5 6,8 3,3 4,4 7,7 4,-4 9,-17 10,-23 -3,-1 -5,-4 -8,-7 -3,-3 -5,-4 -7,-7 -5,-5 -9,-10 -15,-14 -2,9 -4,15 -7,22z"/>
    <path class="fil80" d="M9523 1759l14 0c-2,-5 -5,-12 -7,-16 -2,-6 -4,-9 -6,-15 -4,-11 -8,-20 -12,-29l-15 0c3,9 8,19 12,29 5,9 9,23 14,31z"/>
    <path class="fil100" d="M8206 1070c-1,-7 -6,-20 -9,-27 -2,-7 -8,-21 -9,-28l-11 0 -4 0c0,9 6,20 9,29 3,8 6,20 9,26l15 0z"/>
    <path class="fil54" d="M8893 1345l28 29c5,4 1,2 7,4l3 -25c-2,4 0,2 -2,4l-36 -35 0 23z"/>
    <path class="fil50" d="M8648 1195c6,1 3,0 8,3 1,2 3,4 4,6 4,3 7,6 10,9l24 -12c3,-2 1,-1 3,-3l-18 -20c-11,5 -22,11 -31,17z"/>
    <path class="fil101" d="M10140 1246l2 2c0,0 1,1 2,2l28 17c3,-4 5,-7 8,-11 3,-4 6,-7 8,-11 -7,-1 -13,-3 -20,-5 -4,-2 -6,-2 -10,-3l-9 -4 -3 0c0,5 -4,8 -6,13z"/>
    <path class="fil102" d="M8866 1450l18 19c0,0 3,3 3,3 5,4 1,2 6,3l8 -15 0 -3c-3,-3 -4,-4 -7,-7 -2,-3 -4,-5 -6,-8 -4,-3 -12,-10 -14,-14 -3,7 -6,15 -8,22z"/>
    <path class="fil37" d="M8734 1160c1,6 6,9 10,13 4,4 8,7 11,11l30 0c-4,-6 -20,-22 -26,-27 5,0 7,1 11,-1l-13 1 -23 3z"/>
    <path class="fil62" d="M8062 1015l2 0 42 0c-8,-2 -9,3 -13,-5 -1,-2 -4,-12 -4,-15l-39 0c0,4 2,9 3,13 1,2 2,3 4,5 1,1 1,0 3,1l2 1z"/>
    <path class="fil22" d="M8177 1015l11 0 36 0 -23 -4 -2 -6c-1,-4 -2,-5 -2,-10l-38 0c1,4 4,14 4,15 3,5 0,3 7,4 3,1 4,0 7,1z"/>
    <path class="fil69" d="M9619 1014l3 1 38 0c0,-8 3,-12 3,-20l-38 0c-3,6 -5,13 -6,19z"/>
    <path class="fil29" d="M8144 1015l7 0 22 0 4 0c-3,-1 -4,0 -7,-1 -7,-1 -4,1 -7,-4 0,-1 -3,-11 -4,-15l-37 0c1,4 2,7 4,10 2,5 3,3 3,9l15 1z"/>
    <path class="fil82" d="M9730 1014l36 1c2,-7 3,-13 4,-20l-36 0c-2,5 -3,13 -4,19z"/>
    <path class="fil64" d="M8106 1015l2 0 36 0 -15 -1c0,-6 -1,-4 -3,-9 -2,-3 -3,-6 -4,-10l-33 0c0,3 3,13 4,15 4,8 5,3 13,5z"/>
    <path class="fil99" d="M8639 1199c-2,4 -5,5 -8,8 5,1 3,0 7,4 1,2 3,3 4,5 4,4 8,7 11,11l17 -14c-3,-3 -6,-6 -10,-9 -1,-2 -3,-4 -4,-6 -5,-3 -2,-2 -8,-3 -5,3 -3,3 -9,4z"/>
    <path class="fil103" d="M9766 1015l31 0c2,-6 3,-13 4,-20l-31 0c-1,7 -2,13 -4,20z"/>
    <path class="fil47" d="M9797 1015l31 -1c0,-3 0,-7 0,-10 1,-6 2,-1 3,-9l-30 0c-1,7 -2,14 -4,20z"/>
    <path class="fil104" d="M9449 1166c-5,4 -1,1 -4,3 -3,-1 -1,-1 -3,-2 -4,-2 -13,-8 -14,-13 -5,6 -8,21 -10,30l26 1 5 -19z"/>
    <path class="fil53" d="M9700 1015l7 0 23 -1c1,-6 2,-14 4,-19l-31 0c0,9 -3,12 -3,20z"/>
    <path class="fil105" d="M8680 1178l-1 0 18 20c4,0 19,-6 22,-8 -8,-5 -14,-15 -22,-19l-17 7z"/>
    <path class="fil59" d="M9436 1126c0,5 0,2 3,5 1,1 4,3 5,3 5,3 6,5 12,6l6 -20c-5,1 -10,-3 -15,-7 -2,-1 -1,0 -3,-1l-2 -6c-3,4 -6,14 -6,20z"/>
    <path class="fil105" d="M9342 1708c-2,4 -6,8 -9,12 2,3 11,8 15,10 6,3 11,4 17,7l-15 -34c-4,2 -4,3 -8,5z"/>
    <path class="fil74" d="M9445 1096c2,4 5,4 8,6 4,3 7,5 12,6l1 -4 4 -14c-5,2 -1,2 -11,-4 -11,-7 -9,-3 -8,-9 -4,4 -6,14 -6,19z"/>
    <path class="fil40" d="M8030 1014c7,2 22,1 32,1l-2 -1c-2,-1 -2,0 -3,-1 -2,-2 -3,-3 -4,-5 -1,-4 -3,-9 -3,-13l-15 0c-2,5 -3,14 -5,19z"/>
    <path class="fil68" d="M9660 1015l10 0 10 0c1,-3 4,-16 5,-20l-22 0c0,8 -3,12 -3,20z"/>
    <path class="fil62" d="M9428 1154c1,5 10,11 14,13 2,1 0,1 3,2 3,-2 -1,1 4,-3l4 -13c-8,-2 -6,-2 -12,-5 -4,-3 -7,-3 -9,-8 -3,3 -4,9 -4,14z"/>
    <path class="fil71" d="M9455 1063c0,7 1,4 8,9 4,3 4,5 11,6l5 -20 -4 2c-5,-2 -2,-1 -9,-5 -1,0 -2,-1 -3,-1l-5 -4 -3 13z"/>
    <path class="fil57" d="M9680 1015l20 0c0,-8 3,-11 3,-20l-18 0c-1,4 -4,17 -5,20z"/>
    <path class="fil106" d="M9918 1014c1,-2 0,0 1,-4 0,0 1,-4 1,-5 1,-4 1,-6 2,-10l-19 0c0,8 -3,12 -3,19 4,-2 2,-1 7,-1 3,0 8,1 11,1z"/>
    <path class="fil60" d="M9451 1077c-1,6 -3,2 8,9 10,6 6,6 11,4l4 -12c-7,-1 -7,-3 -11,-6 -7,-5 -8,-2 -8,-9 -3,3 -4,9 -4,14z"/>
    <path class="fil64" d="M9432 1140c2,5 5,5 9,8 6,3 4,3 12,5l3 -13c-6,-1 -7,-3 -12,-6 -1,0 -4,-2 -5,-3 -3,-3 -3,0 -3,-5 -2,2 -1,1 -3,5 -1,4 -1,5 -1,9z"/>
    <path class="fil44" d="M9442 1102l0 4 2 6c2,1 1,0 3,1 5,4 10,8 15,7l3 -12c-5,-1 -8,-3 -12,-6 -3,-2 -6,-2 -8,-6 -2,3 -1,1 -3,6z"/>
    <path class="fil77" d="M9458 1050l5 4c1,0 2,1 3,1 7,4 4,3 9,5l4 -2 4 -14 -21 -1c-4,3 -3,1 -4,7z"/>
   </g>
   <path class="fil107 str0" d="M7455 459c0,0 0,1655 0,2186"/>
  </g>
 </g>
</svg>
